<?xml version="1.0" encoding="UTF-8"?>
<svg xmlns="http://www.w3.org/2000/svg" xmlns:xlink="http://www.w3.org/1999/xlink" width="26px" height="26px" viewBox="0 0 26 26" version="1.1">
<g id="surface1">
<path style=" stroke:none;fill-rule:nonzero;fill:rgb(0%,0%,0%);fill-opacity:1;" d="M 9.851562 7.675781 C 8.367188 8.289062 7.054688 8.828125 6.933594 8.878906 C 6.765625 8.949219 6.710938 8.976562 6.710938 8.988281 C 6.710938 9 6.785156 9.320312 6.875 9.703125 C 6.964844 10.089844 7.039062 10.40625 7.039062 10.40625 C 7.039062 10.410156 9.519531 10.410156 12.550781 10.410156 C 17.789062 10.410156 18.058594 10.410156 18.0625 10.390625 C 18.074219 10.359375 18.398438 8.976562 18.398438 8.972656 C 18.394531 8.972656 12.566406 6.566406 12.554688 6.566406 C 12.550781 6.5625 11.332031 7.0625 9.851562 7.675781 Z M 12.789062 7.9375 C 13.097656 8.027344 13.332031 8.28125 13.402344 8.59375 C 13.421875 8.6875 13.417969 8.878906 13.394531 8.96875 C 13.316406 9.28125 13.097656 9.515625 12.796875 9.605469 C 12.714844 9.628906 12.6875 9.632812 12.554688 9.632812 C 12.390625 9.632812 12.332031 9.625 12.207031 9.566406 C 11.976562 9.46875 11.792969 9.261719 11.722656 9.023438 C 11.675781 8.871094 11.675781 8.675781 11.722656 8.519531 C 11.8125 8.226562 12.0625 7.992188 12.371094 7.925781 C 12.464844 7.902344 12.691406 7.910156 12.789062 7.9375 Z M 12.789062 7.9375 "/>
<path style=" stroke:none;fill-rule:nonzero;fill:rgb(0%,0%,0%);fill-opacity:1;" d="M 7.425781 11.050781 C 7.425781 11.058594 7.359375 12.128906 7.28125 13.429688 C 7.203125 14.730469 7.136719 15.824219 7.132812 15.855469 L 7.128906 15.921875 L 9.582031 15.921875 L 9.574219 15.851562 C 9.574219 15.816406 9.507812 14.730469 9.429688 13.445312 C 9.351562 12.15625 9.285156 11.089844 9.285156 11.070312 L 9.277344 11.039062 L 8.355469 11.039062 C 7.621094 11.039062 7.429688 11.042969 7.425781 11.050781 Z M 7.425781 11.050781 "/>
<path style=" stroke:none;fill-rule:nonzero;fill:rgb(0%,0%,0%);fill-opacity:1;" d="M 11.625 11.050781 C 11.621094 11.0625 11.328125 15.832031 11.328125 15.890625 L 11.328125 15.921875 L 13.769531 15.921875 L 13.769531 15.878906 C 13.769531 15.835938 13.496094 11.273438 13.484375 11.121094 L 13.476562 11.039062 L 12.554688 11.039062 C 11.824219 11.039062 11.628906 11.042969 11.625 11.050781 Z M 11.625 11.050781 "/>
<path style=" stroke:none;fill-rule:nonzero;fill:rgb(0%,0%,0%);fill-opacity:1;" d="M 15.816406 11.101562 C 15.808594 11.164062 15.648438 13.808594 15.648438 13.84375 C 15.648438 13.855469 15.675781 13.847656 15.789062 13.789062 C 16.40625 13.480469 17.09375 13.394531 17.746094 13.546875 C 17.785156 13.554688 17.820312 13.5625 17.824219 13.558594 C 17.828125 13.554688 17.683594 11.070312 17.675781 11.050781 C 17.671875 11.042969 17.476562 11.039062 16.746094 11.039062 L 15.820312 11.039062 Z M 15.816406 11.101562 "/>
<path style=" stroke:none;fill-rule:nonzero;fill:rgb(0%,0%,0%);fill-opacity:1;" d="M 16.914062 13.925781 C 16.492188 13.96875 16.164062 14.074219 15.835938 14.273438 C 14.730469 14.9375 14.324219 16.347656 14.910156 17.5 C 15.03125 17.730469 15.171875 17.921875 15.371094 18.121094 C 15.757812 18.507812 16.230469 18.742188 16.796875 18.820312 C 16.929688 18.839844 17.296875 18.839844 17.441406 18.816406 C 17.863281 18.753906 18.253906 18.589844 18.574219 18.347656 L 18.664062 18.277344 L 18.917969 18.535156 L 19.171875 18.796875 L 19.164062 18.851562 C 19.144531 18.976562 19.167969 19.09375 19.230469 19.1875 C 19.246094 19.214844 19.527344 19.503906 19.855469 19.832031 C 20.4375 20.410156 20.457031 20.425781 20.53125 20.460938 C 20.601562 20.492188 20.609375 20.496094 20.71875 20.496094 C 20.832031 20.496094 20.835938 20.492188 20.910156 20.460938 C 21.066406 20.382812 21.152344 20.269531 21.179688 20.097656 C 21.191406 20.011719 21.179688 19.921875 21.132812 19.828125 C 21.097656 19.757812 21.070312 19.730469 20.527344 19.183594 C 20.210938 18.867188 19.929688 18.589844 19.898438 18.566406 C 19.804688 18.496094 19.746094 18.476562 19.617188 18.476562 L 19.511719 18.472656 L 19.253906 18.210938 C 19.113281 18.066406 19 17.945312 19.003906 17.941406 C 19.007812 17.933594 19.039062 17.894531 19.074219 17.847656 C 19.253906 17.605469 19.40625 17.296875 19.480469 17.003906 C 19.539062 16.769531 19.554688 16.660156 19.554688 16.390625 C 19.554688 16.121094 19.542969 16.015625 19.488281 15.789062 C 19.410156 15.464844 19.242188 15.125 19.03125 14.855469 C 18.960938 14.765625 18.714844 14.519531 18.621094 14.445312 C 18.296875 14.191406 17.875 14.011719 17.449219 13.945312 C 17.351562 13.929688 17 13.917969 16.914062 13.925781 Z M 17.441406 14.417969 C 17.875 14.496094 18.230469 14.6875 18.539062 15.007812 C 18.898438 15.378906 19.089844 15.855469 19.089844 16.378906 C 19.089844 16.933594 18.878906 17.429688 18.480469 17.816406 C 18.117188 18.160156 17.675781 18.347656 17.171875 18.367188 C 16.285156 18.398438 15.488281 17.84375 15.210938 17 C 15.007812 16.390625 15.117188 15.714844 15.503906 15.191406 C 15.824219 14.757812 16.328125 14.46875 16.878906 14.398438 C 17.003906 14.386719 17.308594 14.394531 17.441406 14.417969 Z M 17.441406 14.417969 "/>
<path style=" stroke:none;fill-rule:nonzero;fill:rgb(0%,0%,0%);fill-opacity:1;" d="M 6.648438 16.4375 C 6.644531 16.441406 6.640625 16.636719 6.640625 16.878906 L 6.640625 17.308594 L 14.347656 17.308594 L 14.320312 17.21875 C 14.257812 17.023438 14.214844 16.773438 14.203125 16.558594 L 14.195312 16.433594 L 10.425781 16.433594 C 8.351562 16.429688 6.648438 16.433594 6.648438 16.4375 Z M 6.648438 16.4375 "/>
<path style=" stroke:none;fill-rule:nonzero;fill:rgb(0%,0%,0%);fill-opacity:1;" d="M 5.851562 18.109375 L 5.851562 18.601562 L 15.222656 18.601562 L 15.164062 18.546875 C 15.132812 18.519531 15.097656 18.488281 15.089844 18.480469 C 15.050781 18.457031 14.867188 18.242188 14.78125 18.128906 C 14.683594 18.003906 14.585938 17.84375 14.519531 17.707031 L 14.476562 17.621094 L 5.851562 17.621094 Z M 5.851562 18.109375 "/>
</g>
</svg>
